<svg xmlns="http://www.w3.org/2000/svg" viewBox="0 0 32 32"><title>BUSINESS</title><g id="_27.CHAT" data-name="27.CHAT"><path d="M30,19V11.87A5.13,5.13,0,0,0,25.1,6.56h-.86A5,5,0,0,0,19.4,2.09H6.88A5.13,5.13,0,0,0,2,7.39V14.5A4.81,4.81,0,0,0,4.92,19l-2.07,3.9a1.74,1.74,0,0,0,.41,2.18,1.6,1.6,0,0,0,1,.38,1.62,1.62,0,0,0,1-.37l3.55-2.87a4.31,4.31,0,0,0,3.27,1.54h7.36l7.19,5.81a1.58,1.58,0,0,0,2,0,1.74,1.74,0,0,0,.42-2.17l-2.08-3.92A4.79,4.79,0,0,0,30,19ZM7.28,17.79a1,1,0,0,0-.86-.48A2.65,2.65,0,0,1,4,14.5V7.39A3.13,3.13,0,0,1,6.88,4.09H19.4a3.13,3.13,0,0,1,2.92,3.31V14.5a2.65,2.65,0,0,1-2.46,2.81H12.14a1,1,0,0,0-.63.22l-6.19,5,2-3.75A1,1,0,0,0,7.28,17.79ZM28,19a2.65,2.65,0,0,1-2.46,2.81h0a2.22,2.22,0,0,0-.39.1h0A.93.93,0,0,0,25,22a1,1,0,0,0-.16.13,1.86,1.86,0,0,0-.19.32,1,1,0,0,0,0,.21.94.94,0,0,0,0,.13s0,0,0,0a2.25,2.25,0,0,0,.1.39s0,0,0,0l2,3.75-6.19-5a.93.93,0,0,0-.11-.06.74.74,0,0,0-.39-.14l-.13,0H12.12a2.32,2.32,0,0,1-1.71-.8l2.08-1.68h7.36a4.65,4.65,0,0,0,4.46-4.81V8.56h.78A3.13,3.13,0,0,1,28,11.87Z"/><circle cx="6.14" cy="11" r="1.14"/><circle cx="10.71" cy="11" r="1.14"/><circle cx="15.29" cy="11" r="1.14"/><circle cx="19.86" cy="11" r="1.14"/></g></svg>