<svg xmlns="http://www.w3.org/2000/svg" width="22.504" height="22.504" viewBox="0 0 22.504 22.504"><defs><style>.a{fill:#fff;}</style></defs><g transform="translate(-0.003 -1.362)"><path class="a" d="M22.073,21.514c-.641-1.481-3.768-2.461-5.846-3.381s-1.794-1.478-1.869-2.241c-.01-.1-.017-.216-.021-.33a6.323,6.323,0,0,0,1.674-2.5L16.037,13c.08-.217.15-.444.211-.675a1.323,1.323,0,0,0,.86-1.1A2.214,2.214,0,0,0,17.386,10a1.245,1.245,0,0,0-.664-1.16c0-.042,0-.082,0-.121A18.389,18.389,0,0,0,16.477,5.7a5.127,5.127,0,0,0-1.962-3.312,5.639,5.639,0,0,0-6.5,0A5.127,5.127,0,0,0,6.056,5.7,18.383,18.383,0,0,0,5.81,8.723c0,.036,0,.073,0,.112-.326.129-.62.452-.688,1.169A2.214,2.214,0,0,0,5.4,11.222c.108.489.393,1.019.885,1.1.061.232.133.46.213.68l.016.042.007.019A6.3,6.3,0,0,0,8.238,15.6c0,.1-.011.2-.02.294-.075.763.144,1.321-1.934,2.241s-5.205,1.9-5.846,3.381a3.768,3.768,0,0,0-.385,2.352h22.4A3.761,3.761,0,0,0,22.073,21.514Z" transform="translate(0)"/></g></svg>